<?xml version="1.0" encoding="utf-8"?>
<svg width="128px" height="128px" viewBox="-35.238 9.808 128 128" xmlns="http://www.w3.org/2000/svg">
  <g class="logo-entity" id="symbol" transform="matrix(1.16007, 0, 0, 1.169569, -29.241501, 15.966468)">
    <g class="logo-entity-inner">
      <g class="[object Object]" data-attribution="" data-noun-id="" transform="scale(0.39062502328306575)">
        <g transform="matrix(1, 0, 0, 1, 0, 0.422461)">
          <g class="logo-entity" id="symbol" transform="matrix(1.6, 0, 0, 1.6, 0, 0)">
            <g class="logo-entity" id="symbol" transform="translate(0,0) scale(1.6)">
              <g class="logo-entity-inner">
                <g class="[object Object]" data-attribution="" data-noun-id="126839" transform="scale(1.0917029840259147)">
                  <path d="M7.5,52.5H15v40c0,1.4,1.1,2.5,2.5,2.5h65c1.4,0,2.5-1.1,2.5-2.5v-40h7.5c2.2,0,3.3-2.7,1.8-4.3L51.8,5.7c-1-1-2.6-1-3.5,0  L5.7,48.2C4.2,49.8,5.3,52.5,7.5,52.5z M50,11l36.5,36.5h-4c-1.4,0-2.5,1.1-2.5,2.5v40H20V50c0-1.4-1.1-2.5-2.5-2.5h-4L50,11z" transform="translate(-4.199999809265137,-4.699999809265137)"/>
                </g>
              </g>
            </g>
          </g>
          <g>
            <g class="logo-entity" id="g-1" transform="matrix(1.6, 0, 0, 1.6, 53.647121, 73.643433)">
              <g class="logo-entity-inner">
                <g class="[object Object]" data-attribution="" data-noun-id="66347" transform="scale(1.3642555714319022)">
                  <path d="M71.3,51.6c-1.6-0.2-3.3-0.2-5,0L52.7,54v20l0.2,0.2c4.4,6.2,12.9,11.8,15.4,13.3l0.5,0.2l0.4-0.3  c4.5-2.9,10.8-7.7,15.4-13.6l0.2-0.2V54L71.3,51.6z M68,85.3c-3.2-2.1-9.9-6.8-13.6-11.9V67H68V85.3z M83.2,65.3H69.6V53.1  c0.5,0,1,0,1.4,0.1l12.1,2.1V65.3z" transform="translate(-15,-15)"/>
                  <path d="M78.3,47.1h2.6c0-18-14.6-32.7-32.5-32.7S15.9,29,15.9,46.9s15.5,32.5,33.4,32.5v-0.2v-3.4V47.1h28H78.3z M47.4,18.1v11.3  h-6.6c1.5-4.1,3.6-7.9,6.1-11.3C47.1,18.1,47.3,18.1,47.4,18.1z M35.9,45.3h-8c0.1-5,1.4-9.8,3.6-14.2h6.8  C36.9,35.6,36.1,40.4,35.9,45.3z M40.2,31.2h7.2v14.2h-9.7C37.9,40.4,38.7,35.6,40.2,31.2z M35.9,47.1  C35.9,47.2,35.9,47.2,35.9,47.1c0,5.2,0.7,10.2,2.1,14.8H32c-2.5-4.5-4-9.5-4.2-14.8H35.9z M37.7,47.2  C37.7,47.2,37.7,47.2,37.7,47.2l9.8-0.1V62h-7.6C38.4,57.3,37.7,52.3,37.7,47.2z M44.6,18.3c-2.4,3.4-4.3,7.1-5.7,11h-6.4  c2.5-4.2,6.1-7.9,10.4-10.8C43.5,18.5,44,18.4,44.6,18.3z M38.1,19.9c-3.1,2.7-5.7,5.9-7.7,9.4h-4.9C28.7,25.2,33.1,21.9,38.1,19.9z   M24.2,31.2h5.3c-2.1,4.4-3.3,9.2-3.4,14.2h-6.5C19.8,40.1,21.5,35.3,24.2,31.2z M26.1,47.1c0.2,5.3,1.5,10.3,3.9,14.8h-6  c-2.8-4.3-4.5-9.4-4.5-14.8H26.1z M25.3,63.8H31c2.5,4.2,6,7.9,10.2,10.9C34.8,72.8,29.2,68.9,25.3,63.8z M33.1,63.8h5.4  c1.1,3.5,2.7,6.8,4.5,9.9C39,71.1,35.6,67.7,33.1,63.8z M46.5,75.6c-2.6-3.6-4.6-7.6-6.1-11.9h7.1v11.9  C47.1,75.7,46.8,75.7,46.5,75.6z M71.2,29.4h-4.6c-1.9-3.4-4.4-6.5-7.4-9.2C63.9,22.1,68,25.3,71.2,29.4z M54.2,18.7  c4.3,2.8,7.8,6.5,10.3,10.7h-6.2c-1.4-3.9-3.4-7.6-5.8-11C53,18.4,53.6,18.5,54.2,18.7z M49.2,18.1c0.3,0,0.5,0,0.7,0  c2.7,3.5,4.8,7.3,6.3,11.2h-7.1V18.1z M49.2,45.3V31.2H57c1.5,4.4,2.3,9.2,2.3,14.2H49.2z M61.1,45.3c-0.1-5-0.8-9.7-2.2-14.2h6.6  c2.2,4.3,3.5,9.1,3.6,14.2H61.1z M70.9,45.3c-0.1-5-1.3-9.8-3.4-14.2h4.9c2.7,4.1,4.4,9,4.7,14.2H70.9z" transform="translate(-15,-13)"/>
                </g>
              </g>
            </g>
          </g>
        </g>
      </g>
    </g>
  </g>
</svg>